# xmcd CD database file
# Copyright (C) 1993-1998 Ti Kan
#
# Track frame offsets:
#	150
#	12565
#	26092
#	37162
#	49440
#	61295
#	72790
#	88800
#	100397
#	114295
#	129637
#	145705
#	159170
#	169207
#	183532
#	199965
#	214407
#	238650
#	253132
#	265962
#
# Disc length: 3777 seconds
#
# Revision: 1
# Processed by: cddbd v1.4b41PL1 Copyright (c) Steve Scherf et al.
# Submitted via: NotifyCDPlayer(CDDB) 1.51.3
#
DISCID=330ebf14
DTITLE=Dionne Warwick - Hidden Gems
DYEAR=1900
DGENRE=
TTITLE0=I smiled yesterday
TTITLE1=Wishin' and hopin'
TTITLE2=Unlucky
TTITLE3=Make it easy on yourself
TTITLE4=I cry alone
TTITLE5=Make the music play
TTITLE6=Any old time of day
TTITLE7=(They long to be) Close to you
TTITLE8=In the land of make believe
TTITLE9=How many days of sadness
TTITLE10=You can have him
TTITLE11=Here I am
TTITLE12=This little light
TTITLE13=What the world need now is love
TTITLE14=Let me be lonely
TTITLE15=Who is gonna love me?
TTITLE16=The girl's in love with you
TTITLE17=Slaves
TTITLE18=The look of love
TTITLE19=Let me go to him
EXTD=
EXTT0=
EXTT1=
EXTT2=
EXTT3=
EXTT4=
EXTT5=
EXTT6=
EXTT7=
EXTT8=
EXTT9=
EXTT10=
EXTT11=
EXTT12=
EXTT13=
EXTT14=
EXTT15=
EXTT16=
EXTT17=
EXTT18=
EXTT19=
PLAYORDER=
